<?xml version="1.0" encoding="UTF-8" standalone="no"?>
<svg width="125px" height="18px" viewBox="0 0 125 18" version="1.1" xmlns="http://www.w3.org/2000/svg" xmlns:xlink="http://www.w3.org/1999/xlink">
    <!-- Generator: Sketch 3.7 (28169) - http://www.bohemiancoding.com/sketch -->
    <title>Fill 3</title>
    <desc>Created with Sketch.</desc>
    <defs></defs>
    <g id="Page-1" stroke="none" stroke-width="1" fill="none" fill-rule="evenodd">
        <path d="M115.449905,3.42142571 C115.449905,2.74625367 115.66391,2.28456569 116.129517,2.07222939 C116.522535,1.89403906 117.346745,1.78815785 118.597232,1.78815785 L119.920596,1.78815785 C121.459122,1.78815785 122.425039,1.89403906 122.819792,2.1431038 C123.105229,2.28456569 123.246935,2.74625367 123.284242,3.49172624 L124.428015,3.49172624 L124.428015,3.17236097 C124.428015,1.61111529 123.176371,0.829775093 120.636936,0.829775093 L118.059904,0.829775093 C115.557197,0.829775093 114.305553,1.68170276 114.305553,3.34997741 C114.305553,4.48540274 114.661844,5.19586852 115.378762,5.51494685 C115.986364,5.79930532 117.273289,5.90576041 119.204834,5.90576041 L121.531421,5.90576041 C122.853339,5.90576041 123.533819,6.36658757 123.533819,7.32525727 C123.533819,8.42596274 122.746914,8.95823819 121.209545,8.95823819 L117.452302,8.95823819 C116.091632,8.95823819 115.449905,8.53241783 115.449905,7.68049016 L115.449905,7.04147267 L114.305553,7.04147267 L114.305553,7.68049016 C114.305553,9.17143531 115.413177,9.95220162 117.631893,9.95220162 L121.064947,9.95220162 C123.463255,9.95220162 124.678748,9.17143531 124.678748,7.60904186 L124.678748,7.04147267 C124.642598,5.55024058 123.533819,4.80505495 121.281266,4.80505495 L117.667465,4.80505495 C116.200659,4.80505495 115.449905,4.34394085 115.449905,3.42142571 Z M58.3807346,5.02413436 L51.6557558,5.02413436 L51.6557558,3.56963071 L58.7740421,3.56963071 L58.7740421,1.51025554 L48.9000009,1.51025554 L48.9000009,10.419198 L58.9524764,10.419198 L58.9524764,8.28894843 L51.6557558,8.28894843 L51.6557558,6.83444478 L58.3807346,6.83444478 L58.3807346,5.02413436 Z M66.3229133,3.95929651 L66.3573277,3.95929651 L71.5099443,10.419198 L75.8001766,10.419198 L75.8001766,1.51025554 L73.0840417,1.51025554 L73.0840417,7.97015704 L73.0105857,7.97015704 L67.8241331,1.51025554 L63.5671584,1.51025554 L63.5671584,10.419198 L66.3229133,10.419198 L66.3229133,3.95929651 Z M84.0294118,2.36206843 L88.9295598,2.36206843 C90.3616616,2.36206843 91.0404062,3.00108592 91.0765557,4.27854701 L91.0765557,7.65096394 C91.0404062,8.92785114 90.3616616,9.53214877 88.9295598,9.53214877 L84.0294118,9.53214877 C82.5993344,9.53214877 81.8824159,8.92785114 81.8824159,7.65096394 L81.8824159,4.27854701 C81.8824159,3.00108592 82.5993344,2.36206843 84.0294118,2.36206843 Z M89.0741581,1.40368568 L83.9221199,1.40368568 C81.7751239,1.40368568 80.703072,2.539111 80.703072,4.73966111 L80.703072,7.15398222 C80.703072,9.3886783 81.7751239,10.5261122 83.9221199,10.5261122 L89.0741581,10.5261122 C91.2194189,10.5261122 92.2926276,9.3886783 92.2926276,7.15398222 L92.2926276,4.73966111 C92.2926276,2.539111 91.2194189,1.40368568 89.0741581,1.40368568 Z M107.997452,1.51022685 L106.781958,1.51022685 L106.781958,8.18275159 C106.781958,9.07054687 106.137339,9.53223486 104.849546,9.53223486 L100.592571,9.53223486 C99.3044896,9.53223486 98.6607378,9.07054687 98.6607378,8.18275159 L98.6607378,1.51022685 L97.4440875,1.51022685 L97.4440875,8.18275159 C97.4440875,9.74514504 98.5172963,10.5259113 100.626986,10.5259113 L104.777825,10.5259113 C106.922508,10.5259113 107.997452,9.74514504 107.997452,8.18275159 L107.997452,1.51022685 Z M2.79016926,1.51022685 L0,1.51022685 L0,10.4191693 L8.97897752,10.4191693 L8.97897752,8.14745785 L2.79016926,8.14745785 L2.79016926,1.51022685 Z M21.7492074,1.51022685 L21.7492074,6.65679964 C21.7492074,7.68576987 21.2130368,8.21861921 20.2112597,8.21861921 L17.4210904,8.21861921 C16.4196024,8.21861921 15.8831426,7.68576987 15.8831426,6.65679964 L15.8831426,1.51022685 L13.1641157,1.51022685 L13.1641157,7.26023645 C13.1641157,9.42549282 14.3801876,10.5259113 16.8129098,10.5259113 L20.783869,10.5259113 C23.251584,10.5259113 24.5040947,9.42549282 24.5040947,7.26023645 L24.5040947,1.51022685 L21.7492074,1.51022685 Z M32.0162379,4.03063003 L32.0520983,4.03063003 L35.6653212,10.4193702 L37.740018,10.4193702 L41.3529517,4.03063003 L41.3885229,4.03063003 L41.3885229,10.4193702 L44.0714002,10.4193702 L44.0714002,1.51014077 L39.8144255,1.51014077 L36.6668092,7.26015037 L33.5903353,1.51014077 L29.3336498,1.51014077 L29.3336498,10.4193702 L32.0162379,10.4193702 L32.0162379,4.03063003 Z M105.779313,15.1039107 L105.779313,14.9980294 C105.742585,14.3240052 105.313996,14.0046399 104.4198,14.0046399 L102.595258,14.0046399 C101.700484,13.9690592 101.271894,14.4298864 101.271894,15.3524015 L101.271894,16.3110712 C101.271894,17.1988665 101.700484,17.6594067 102.595258,17.6594067 L104.56382,17.6594067 C105.38456,17.6594067 105.779313,17.1988665 105.779313,16.3110712 L105.779313,15.8490963 L103.489454,15.8490963 L103.489454,16.2401968 L105.313996,16.2401968 L105.313996,16.5951428 C105.313996,17.0209631 105.062973,17.2344472 104.56382,17.269167 L102.630251,17.269167 C102.05822,17.2344472 101.771915,16.9853824 101.771915,16.4884007 L101.771915,15.1397783 C101.771915,14.6433704 102.05822,14.3581511 102.630251,14.3581511 L103.883051,14.3581511 C104.849546,14.3581511 105.313996,14.6072159 105.313996,15.1039107 L105.779313,15.1039107 Z M94.9406567,14.3581224 L96.8730687,14.3581224 C97.4439429,14.3581224 97.72938,14.6433417 97.72938,15.1400365 L97.72938,16.488372 C97.72938,16.9853537 97.4439429,17.2344185 96.8730687,17.2694253 L94.9406567,17.2694253 C94.3327654,17.2344185 94.0453039,16.9853537 94.0453039,16.488372 L94.0453039,15.1400365 C94.0453039,14.6433417 94.3327654,14.3581224 94.9406567,14.3581224 Z M98.1952758,15.3523728 C98.1952758,14.4298577 97.8025468,13.9690305 96.9442111,14.0046112 L94.8695144,14.0046112 C94.0079976,13.9690305 93.5805649,14.4298577 93.5805649,15.3523728 L93.5805649,16.3110425 C93.5805649,17.1988378 94.0079976,17.659378 94.8695144,17.659378 L96.9442111,17.659378 C97.8025468,17.659378 98.1952758,17.1988378 98.1952758,16.3110425 L98.1952758,15.3523728 Z M108.998274,17.6232522 L109.499163,17.6232522 L109.499163,14.0046399 L108.998274,14.0046399 L108.998274,17.6232522 Z M82.9923816,14.3581224 C83.5641233,14.3581224 83.8515848,14.6433417 83.8515848,15.1400365 L83.8515848,16.488372 C83.8515848,16.9853537 83.5641233,17.2344185 82.9923816,17.2694253 L81.0243984,17.2694253 C80.451789,17.2344185 80.1666411,16.9853537 80.1666411,16.488372 L80.1666411,15.1400365 C80.1666411,14.6433417 80.451789,14.3581224 81.0243984,14.3581224 L82.9923816,14.3581224 Z M83.0623671,14.0046112 L80.9894056,14.0046112 C80.0946311,13.9690305 79.6648849,14.4298577 79.7016129,15.3523728 L79.7016129,16.3110425 C79.6648849,17.1988378 80.0946311,17.659378 80.9894056,17.659378 L83.0623671,17.659378 C83.9221488,17.659378 84.3507382,17.1988378 84.3507382,16.3110425 L84.3507382,15.3523728 C84.3507382,14.4298577 83.9221488,13.9690305 83.0623671,14.0046112 Z M90.7902511,17.1988091 L88.0365206,17.1988091 L88.0365206,14.0045825 L87.5353428,14.0045825 L87.5353428,17.6231948 L90.7902511,17.6231948 L90.7902511,17.1988091 Z M76.5526663,14.0046112 L76.0517777,14.0046112 L76.0517777,17.1623963 L72.7604306,14.0046112 L72.0458257,14.0046112 L72.0458257,17.6232235 L72.5461359,17.6232235 L72.5461359,14.4654384 L75.8001766,17.6232235 L76.5526663,17.6232235 L76.5526663,14.0046112 Z M68.7539581,14.0046112 L68.2886407,14.0046112 L68.2886407,15.5302762 L65.0340216,15.5302762 L65.0340216,14.0046112 L64.5340006,14.0046112 L64.5340006,17.6232235 L65.0340216,17.6232235 L65.0340216,15.9558096 L68.2886407,15.9558096 L68.2886407,17.6232235 L68.7539581,17.6232235 L68.7539581,14.0046112 Z M61.3496563,15.1757894 L61.3496563,14.8555633 C61.3496563,14.2879941 60.9916309,13.9689157 60.2405872,14.0044964 L58.3807635,14.0044964 C57.5209819,13.9689157 57.1282529,14.4297429 57.1282529,15.352545 L57.1282529,16.3112147 C57.1282529,17.198723 57.5209819,17.6595502 58.3807635,17.6595502 L60.2405872,17.6595502 C61.0272021,17.6595502 61.4578159,17.3040304 61.4578159,16.6300061 L61.4578159,16.4176698 L60.9566381,16.4176698 L60.9566381,16.6300061 C60.9566381,17.0558264 60.6694658,17.2345906 60.1341628,17.2693105 L58.4524843,17.2693105 C57.8801642,17.2345906 57.5927027,16.9855259 57.5927027,16.4885442 L57.5927027,15.1399217 C57.5927027,14.643227 57.8801642,14.3580077 58.4524843,14.3580077 L60.0971457,14.3580077 C60.6694658,14.3580077 60.9566381,14.5717787 60.9566381,15.0331797 L60.9566381,15.1757894 L61.3496563,15.1757894 Z M54.0869742,14.4298577 L54.0869742,14.0046112 L50.5816216,14.0046112 L50.5816216,17.6232235 L54.1595625,17.6232235 L54.1595625,17.1988378 L51.0475174,17.1988378 L51.0475174,15.9558096 L53.9805498,15.9558096 L53.9805498,15.5302762 L51.0475174,15.5302762 L51.0475174,14.4298577 L54.0869742,14.4298577 Z M122.914215,15.0690186 L123.378954,15.0690186 L123.378954,14.9622766 C123.378954,14.2879654 122.878065,13.969174 121.875999,14.0047547 L120.80279,14.0047547 C119.80188,14.0047547 119.300413,14.3241199 119.335985,14.9981442 C119.300413,15.7077492 119.980315,16.0624082 121.303968,16.0624082 L122.233157,16.0624082 C122.770773,16.0624082 123.02035,16.2403116 123.02035,16.5949706 C123.02035,17.0210779 122.699052,17.234562 122.127311,17.2692818 L120.588784,17.2692818 C120.052614,17.234562 119.80188,17.0557977 119.836873,16.7355716 L119.836873,16.4885155 L119.335985,16.4885155 L119.335985,16.7355716 C119.335985,17.3404432 119.765152,17.6233669 120.660505,17.6595215 L122.01944,17.6595215 C122.985357,17.6595215 123.450385,17.3404432 123.450385,16.7355716 L123.450385,16.4885155 C123.450385,15.8847917 123.02035,15.6007202 122.127311,15.6007202 L120.695498,15.6007202 C120.124624,15.6007202 119.80188,15.3892447 119.836873,15.033151 C119.80188,14.57175 120.230759,14.357979 121.052367,14.357979 L121.590272,14.357979 C122.485047,14.357979 122.914215,14.6073307 122.914215,15.0690186 Z M113.326681,14.4298577 L116.367873,14.4298577 L116.367873,14.0046112 L112.825792,14.0046112 L112.825792,17.6232235 L116.367873,17.6232235 L116.367873,17.1988378 L113.326681,17.1988378 L113.326681,15.9558096 L116.223853,15.9558096 L116.223853,15.5302762 L113.326681,15.5302762 L113.326681,14.4298577 Z M47.6845363,14.4298577 L47.6845363,14.0046112 L43.5348536,14.0046112 L43.5348536,14.4298577 L45.3593953,14.4298577 L45.3593953,17.6232235 L45.8602839,17.6232235 L45.8602839,14.4298577 L47.6845363,14.4298577 Z M36.0948071,14.4298577 L36.0948071,14.0046112 L32.5891654,14.0046112 L32.5891654,17.6232235 L36.1659495,17.6232235 L36.1659495,17.1988378 L33.0541936,17.1988378 L33.0541936,15.9558096 L35.987226,15.9558096 L35.987226,15.5302762 L33.0541936,15.5302762 L33.0541936,14.4298577 L36.0948071,14.4298577 Z M28.1527442,14.3581224 C28.7247752,14.3581224 29.011369,14.5716065 29.011369,15.0332945 L29.011369,15.1759041 L29.4049657,15.1759041 L29.4049657,14.855678 C29.4049657,14.2881089 29.011369,13.9690305 28.2600362,14.0046112 L26.3996341,14.0046112 C25.5412985,13.9690305 25.147991,14.4298577 25.147991,15.3523728 L25.147991,16.3110425 C25.147991,17.1988378 25.5412985,17.659378 26.3996341,17.659378 L28.2600362,17.659378 C29.0828006,17.659378 29.4763973,17.3041451 29.4763973,16.6298339 L29.4763973,16.4177846 L29.011369,16.4177846 L29.011369,16.6298339 C29.011369,17.0559412 28.7247752,17.2344185 28.1886046,17.2694253 L26.4719333,17.2694253 C25.8990347,17.2344185 25.6135976,16.9853537 25.6488796,16.488372 L25.6488796,15.1400365 C25.6135976,14.6433417 25.8990347,14.3581224 26.4719333,14.3581224 L28.1527442,14.3581224 Z M18.5297547,14.0046112 L17.9577237,14.0046112 L16.205192,17.1623963 L14.4515035,14.0046112 L13.9509041,14.0046112 L15.9185981,17.6232235 L16.5270679,17.6232235 L18.5297547,14.0046112 Z M21.9283937,14.0046399 L21.4636547,14.0046399 L21.4636547,17.6232522 L21.9283937,17.6232522 L21.9283937,14.0046399 Z M11.1969134,14.4298577 L11.1969134,14.0046112 L7.69127161,14.0046112 L7.69127161,17.6232235 L11.2327738,17.6232235 L11.2327738,17.1988378 L8.15601062,17.1988378 L8.15601062,15.9558096 L11.0893322,15.9558096 L11.0893322,15.5302762 L8.15601062,15.5302762 L8.15601062,14.4298577 L11.1969134,14.4298577 Z M3.97066998,15.9914764 C3.97066998,16.8075364 3.64879411,17.1989239 3.00533157,17.1989239 L0.536170585,17.1989239 L0.536170585,14.4299438 L3.07647394,14.4299438 C3.6837869,14.4299438 3.97066998,14.8207573 3.97066998,15.6365304 L3.97066998,15.9914764 Z M2.9336108,17.6233095 C3.93509879,17.5883028 4.47155857,17.0210205 4.47155857,15.8491537 C4.47155857,14.6072733 3.97066998,14.0046973 2.96947118,14.0046973 L0,14.0046973 L0,17.6233095 L2.9336108,17.6233095 Z" id="Fill-3" fill="#004A82"></path>
    </g>
</svg>