<?xml version="1.0" encoding="UTF-8" standalone="no"?>
<svg width="125px" height="17px" viewBox="0 0 125 17" version="1.1" xmlns="http://www.w3.org/2000/svg" xmlns:xlink="http://www.w3.org/1999/xlink">
    <!-- Generator: Sketch 3.7 (28169) - http://www.bohemiancoding.com/sketch -->
    <title>Fill 3</title>
    <desc>Created with Sketch.</desc>
    <defs></defs>
    <g id="Page-1" stroke="none" stroke-width="1" fill="none" fill-rule="evenodd">
        <path d="M115.449905,2.59165062 C115.449905,1.91647857 115.66391,1.45479059 116.129517,1.24245429 C116.522535,1.06426397 117.346745,0.958382757 118.597232,0.958382757 L119.920596,0.958382757 C121.459122,0.958382757 122.425039,1.06426397 122.819792,1.31332871 C123.105229,1.45479059 123.246935,1.91647857 123.284242,2.66195115 L124.428015,2.66195115 L124.428015,2.34258588 C124.428015,0.781340194 123.176371,0 120.636936,0 L118.059904,0 C115.557197,0 114.305553,0.851927666 114.305553,2.52020232 C114.305553,3.65562764 114.661844,4.36609342 115.378762,4.68517175 C115.986364,4.96953023 117.273289,5.07598532 119.204834,5.07598532 L121.531421,5.07598532 C122.853339,5.07598532 123.533819,5.53681248 123.533819,6.49548218 C123.533819,7.59618764 122.746914,8.1284631 121.209545,8.1284631 L117.452302,8.1284631 C116.091632,8.1284631 115.449905,7.70264273 115.449905,6.85071507 L115.449905,6.21169758 L114.305553,6.21169758 L114.305553,6.85071507 C114.305553,8.34166022 115.413177,9.12242653 117.631893,9.12242653 L121.064947,9.12242653 C123.463255,9.12242653 124.678748,8.34166022 124.678748,6.77926677 L124.678748,6.21169758 C124.642598,4.72046549 123.533819,3.97527985 121.281266,3.97527985 L117.667465,3.97527985 C116.200659,3.97527985 115.449905,3.51416576 115.449905,2.59165062 Z M58.3807346,4.19435927 L51.6557558,4.19435927 L51.6557558,2.73985562 L58.7740421,2.73985562 L58.7740421,0.680480452 L48.9000009,0.680480452 L48.9000009,9.58942292 L58.9524764,9.58942292 L58.9524764,7.45917334 L51.6557558,7.45917334 L51.6557558,6.00466969 L58.3807346,6.00466969 L58.3807346,4.19435927 Z M66.3229133,3.12952142 L66.3573277,3.12952142 L71.5099443,9.58942292 L75.8001766,9.58942292 L75.8001766,0.680480452 L73.0840417,0.680480452 L73.0840417,7.14038195 L73.0105857,7.14038195 L67.8241331,0.680480452 L63.5671584,0.680480452 L63.5671584,9.58942292 L66.3229133,9.58942292 L66.3229133,3.12952142 Z M84.0294118,1.53229334 L88.9295598,1.53229334 C90.3616616,1.53229334 91.0404062,2.17131083 91.0765557,3.44877191 L91.0765557,6.82118884 C91.0404062,8.09807605 90.3616616,8.70237368 88.9295598,8.70237368 L84.0294118,8.70237368 C82.5993344,8.70237368 81.8824159,8.09807605 81.8824159,6.82118884 L81.8824159,3.44877191 C81.8824159,2.17131083 82.5993344,1.53229334 84.0294118,1.53229334 Z M89.0741581,0.573910584 L83.9221199,0.573910584 C81.7751239,0.573910584 80.703072,1.7093359 80.703072,3.90988601 L80.703072,6.32420713 C80.703072,8.55890321 81.7751239,9.69633711 83.9221199,9.69633711 L89.0741581,9.69633711 C91.2194189,9.69633711 92.2926276,8.55890321 92.2926276,6.32420713 L92.2926276,3.90988601 C92.2926276,1.7093359 91.2194189,0.573910584 89.0741581,0.573910584 Z M107.997452,0.680451757 L106.781958,0.680451757 L106.781958,7.3529765 C106.781958,8.24077178 106.137339,8.70245976 104.849546,8.70245976 L100.592571,8.70245976 C99.3044896,8.70245976 98.6607378,8.24077178 98.6607378,7.3529765 L98.6607378,0.680451757 L97.4440875,0.680451757 L97.4440875,7.3529765 C97.4440875,8.91536994 98.5172963,9.69613626 100.626986,9.69613626 L104.777825,9.69613626 C106.922508,9.69613626 107.997452,8.91536994 107.997452,7.3529765 L107.997452,0.680451757 Z M2.79016926,0.680451757 L0,0.680451757 L0,9.58939422 L8.97897752,9.58939422 L8.97897752,7.31768276 L2.79016926,7.31768276 L2.79016926,0.680451757 Z M21.7492074,0.680451757 L21.7492074,5.82702455 C21.7492074,6.85599478 21.2130368,7.38884411 20.2112597,7.38884411 L17.4210904,7.38884411 C16.4196024,7.38884411 15.8831426,6.85599478 15.8831426,5.82702455 L15.8831426,0.680451757 L13.1641157,0.680451757 L13.1641157,6.43046136 C13.1641157,8.59571773 14.3801876,9.69613626 16.8129098,9.69613626 L20.783869,9.69613626 C23.251584,9.69613626 24.5040947,8.59571773 24.5040947,6.43046136 L24.5040947,0.680451757 L21.7492074,0.680451757 Z M32.0162379,3.20085494 L32.0520983,3.20085494 L35.6653212,9.58959508 L37.740018,9.58959508 L41.3529517,3.20085494 L41.3885229,3.20085494 L41.3885229,9.58959508 L44.0714002,9.58959508 L44.0714002,0.680365675 L39.8144255,0.680365675 L36.6668092,6.43037528 L33.5903353,0.680365675 L29.3336498,0.680365675 L29.3336498,9.58959508 L32.0162379,9.58959508 L32.0162379,3.20085494 Z M105.779313,14.2741356 L105.779313,14.1682544 C105.742585,13.4942301 105.313996,13.1748648 104.4198,13.1748648 L102.595258,13.1748648 C101.700484,13.1392841 101.271894,13.6001113 101.271894,14.5226264 L101.271894,15.4812961 C101.271894,16.3690914 101.700484,16.8296316 102.595258,16.8296316 L104.56382,16.8296316 C105.38456,16.8296316 105.779313,16.3690914 105.779313,15.4812961 L105.779313,15.0193212 L103.489454,15.0193212 L103.489454,15.4104217 L105.313996,15.4104217 L105.313996,15.7653677 C105.313996,16.191188 105.062973,16.4046721 104.56382,16.4393919 L102.630251,16.4393919 C102.05822,16.4046721 101.771915,16.1556073 101.771915,15.6586256 L101.771915,14.3100032 C101.771915,13.8135953 102.05822,13.528376 102.630251,13.528376 L103.883051,13.528376 C104.849546,13.528376 105.313996,13.7774408 105.313996,14.2741356 L105.779313,14.2741356 Z M94.9406567,13.5283474 L96.8730687,13.5283474 C97.4439429,13.5283474 97.72938,13.8135667 97.72938,14.3102614 L97.72938,15.6585969 C97.72938,16.1555786 97.4439429,16.4046434 96.8730687,16.4396502 L94.9406567,16.4396502 C94.3327654,16.4046434 94.0453039,16.1555786 94.0453039,15.6585969 L94.0453039,14.3102614 C94.0453039,13.8135667 94.3327654,13.5283474 94.9406567,13.5283474 Z M98.1952758,14.5225977 C98.1952758,13.6000826 97.8025468,13.1392554 96.9442111,13.1748361 L94.8695144,13.1748361 C94.0079976,13.1392554 93.5805649,13.6000826 93.5805649,14.5225977 L93.5805649,15.4812674 C93.5805649,16.3690627 94.0079976,16.8296029 94.8695144,16.8296029 L96.9442111,16.8296029 C97.8025468,16.8296029 98.1952758,16.3690627 98.1952758,15.4812674 L98.1952758,14.5225977 Z M108.998274,16.7934771 L109.499163,16.7934771 L109.499163,13.1748648 L108.998274,13.1748648 L108.998274,16.7934771 Z M82.9923816,13.5283474 C83.5641233,13.5283474 83.8515848,13.8135667 83.8515848,14.3102614 L83.8515848,15.6585969 C83.8515848,16.1555786 83.5641233,16.4046434 82.9923816,16.4396502 L81.0243984,16.4396502 C80.451789,16.4046434 80.1666411,16.1555786 80.1666411,15.6585969 L80.1666411,14.3102614 C80.1666411,13.8135667 80.451789,13.5283474 81.0243984,13.5283474 L82.9923816,13.5283474 Z M83.0623671,13.1748361 L80.9894056,13.1748361 C80.0946311,13.1392554 79.6648849,13.6000826 79.7016129,14.5225977 L79.7016129,15.4812674 C79.6648849,16.3690627 80.0946311,16.8296029 80.9894056,16.8296029 L83.0623671,16.8296029 C83.9221488,16.8296029 84.3507382,16.3690627 84.3507382,15.4812674 L84.3507382,14.5225977 C84.3507382,13.6000826 83.9221488,13.1392554 83.0623671,13.1748361 Z M90.7902511,16.369034 L88.0365206,16.369034 L88.0365206,13.1748074 L87.5353428,13.1748074 L87.5353428,16.7934197 L90.7902511,16.7934197 L90.7902511,16.369034 Z M76.5526663,13.1748361 L76.0517777,13.1748361 L76.0517777,16.3326212 L72.7604306,13.1748361 L72.0458257,13.1748361 L72.0458257,16.7934484 L72.5461359,16.7934484 L72.5461359,13.6356633 L75.8001766,16.7934484 L76.5526663,16.7934484 L76.5526663,13.1748361 Z M68.7539581,13.1748361 L68.2886407,13.1748361 L68.2886407,14.7005011 L65.0340216,14.7005011 L65.0340216,13.1748361 L64.5340006,13.1748361 L64.5340006,16.7934484 L65.0340216,16.7934484 L65.0340216,15.1260345 L68.2886407,15.1260345 L68.2886407,16.7934484 L68.7539581,16.7934484 L68.7539581,13.1748361 Z M61.3496563,14.3460143 L61.3496563,14.0257882 C61.3496563,13.458219 60.9916309,13.1391407 60.2405872,13.1747213 L58.3807635,13.1747213 C57.5209819,13.1391407 57.1282529,13.5999678 57.1282529,14.5227699 L57.1282529,15.4814396 C57.1282529,16.3689479 57.5209819,16.8297751 58.3807635,16.8297751 L60.2405872,16.8297751 C61.0272021,16.8297751 61.4578159,16.4742553 61.4578159,15.800231 L61.4578159,15.5878947 L60.9566381,15.5878947 L60.9566381,15.800231 C60.9566381,16.2260513 60.6694658,16.4048156 60.1341628,16.4395354 L58.4524843,16.4395354 C57.8801642,16.4048156 57.5927027,16.1557508 57.5927027,15.6587691 L57.5927027,14.3101467 C57.5927027,13.8134519 57.8801642,13.5282326 58.4524843,13.5282326 L60.0971457,13.5282326 C60.6694658,13.5282326 60.9566381,13.7420036 60.9566381,14.2034046 L60.9566381,14.3460143 L61.3496563,14.3460143 Z M54.0869742,13.6000826 L54.0869742,13.1748361 L50.5816216,13.1748361 L50.5816216,16.7934484 L54.1595625,16.7934484 L54.1595625,16.3690627 L51.0475174,16.3690627 L51.0475174,15.1260345 L53.9805498,15.1260345 L53.9805498,14.7005011 L51.0475174,14.7005011 L51.0475174,13.6000826 L54.0869742,13.6000826 Z M122.914215,14.2392435 L123.378954,14.2392435 L123.378954,14.1325015 C123.378954,13.4581903 122.878065,13.1393989 121.875999,13.1749796 L120.80279,13.1749796 C119.80188,13.1749796 119.300413,13.4943449 119.335985,14.1683691 C119.300413,14.8779741 119.980315,15.2326331 121.303968,15.2326331 L122.233157,15.2326331 C122.770773,15.2326331 123.02035,15.4105365 123.02035,15.7651955 C123.02035,16.1913028 122.699052,16.4047869 122.127311,16.4395067 L120.588784,16.4395067 C120.052614,16.4047869 119.80188,16.2260227 119.836873,15.9057966 L119.836873,15.6587404 L119.335985,15.6587404 L119.335985,15.9057966 C119.335985,16.5106681 119.765152,16.7935918 120.660505,16.8297464 L122.01944,16.8297464 C122.985357,16.8297464 123.450385,16.5106681 123.450385,15.9057966 L123.450385,15.6587404 C123.450385,15.0550167 123.02035,14.7709451 122.127311,14.7709451 L120.695498,14.7709451 C120.124624,14.7709451 119.80188,14.5594696 119.836873,14.2033759 C119.80188,13.7419749 120.230759,13.5282039 121.052367,13.5282039 L121.590272,13.5282039 C122.485047,13.5282039 122.914215,13.7775556 122.914215,14.2392435 Z M113.326681,13.6000826 L116.367873,13.6000826 L116.367873,13.1748361 L112.825792,13.1748361 L112.825792,16.7934484 L116.367873,16.7934484 L116.367873,16.3690627 L113.326681,16.3690627 L113.326681,15.1260345 L116.223853,15.1260345 L116.223853,14.7005011 L113.326681,14.7005011 L113.326681,13.6000826 Z M47.6845363,13.6000826 L47.6845363,13.1748361 L43.5348536,13.1748361 L43.5348536,13.6000826 L45.3593953,13.6000826 L45.3593953,16.7934484 L45.8602839,16.7934484 L45.8602839,13.6000826 L47.6845363,13.6000826 Z M36.0948071,13.6000826 L36.0948071,13.1748361 L32.5891654,13.1748361 L32.5891654,16.7934484 L36.1659495,16.7934484 L36.1659495,16.3690627 L33.0541936,16.3690627 L33.0541936,15.1260345 L35.987226,15.1260345 L35.987226,14.7005011 L33.0541936,14.7005011 L33.0541936,13.6000826 L36.0948071,13.6000826 Z M28.1527442,13.5283474 C28.7247752,13.5283474 29.011369,13.7418314 29.011369,14.2035194 L29.011369,14.346129 L29.4049657,14.346129 L29.4049657,14.025903 C29.4049657,13.4583338 29.011369,13.1392554 28.2600362,13.1748361 L26.3996341,13.1748361 C25.5412985,13.1392554 25.147991,13.6000826 25.147991,14.5225977 L25.147991,15.4812674 C25.147991,16.3690627 25.5412985,16.8296029 26.3996341,16.8296029 L28.2600362,16.8296029 C29.0828006,16.8296029 29.4763973,16.47437 29.4763973,15.8000588 L29.4763973,15.5880095 L29.011369,15.5880095 L29.011369,15.8000588 C29.011369,16.2261661 28.7247752,16.4046434 28.1886046,16.4396502 L26.4719333,16.4396502 C25.8990347,16.4046434 25.6135976,16.1555786 25.6488796,15.6585969 L25.6488796,14.3102614 C25.6135976,13.8135667 25.8990347,13.5283474 26.4719333,13.5283474 L28.1527442,13.5283474 Z M18.5297547,13.1748361 L17.9577237,13.1748361 L16.205192,16.3326212 L14.4515035,13.1748361 L13.9509041,13.1748361 L15.9185981,16.7934484 L16.5270679,16.7934484 L18.5297547,13.1748361 Z M21.9283937,13.1748648 L21.4636547,13.1748648 L21.4636547,16.7934771 L21.9283937,16.7934771 L21.9283937,13.1748648 Z M11.1969134,13.6000826 L11.1969134,13.1748361 L7.69127161,13.1748361 L7.69127161,16.7934484 L11.2327738,16.7934484 L11.2327738,16.3690627 L8.15601062,16.3690627 L8.15601062,15.1260345 L11.0893322,15.1260345 L11.0893322,14.7005011 L8.15601062,14.7005011 L8.15601062,13.6000826 L11.1969134,13.6000826 Z M3.97066998,15.1617013 C3.97066998,15.9777613 3.64879411,16.3691488 3.00533157,16.3691488 L0.536170585,16.3691488 L0.536170585,13.6001687 L3.07647394,13.6001687 C3.6837869,13.6001687 3.97066998,13.9909822 3.97066998,14.8067553 L3.97066998,15.1617013 Z M2.9336108,16.7935345 C3.93509879,16.7585277 4.47155857,16.1912454 4.47155857,15.0193786 C4.47155857,13.7774982 3.97066998,13.1749222 2.96947118,13.1749222 L0,13.1749222 L0,16.7935345 L2.9336108,16.7935345 Z" id="Fill-3" fill="#FFFFFF"></path>
    </g>
</svg>